<svg width="150" height="118" viewBox="0 0 150 118" fill="none" xmlns="http://www.w3.org/2000/svg">
<path d="M149.117 71.9415C150.103 73.9176 150.265 76.2045 149.567 78.3C148.868 80.3954 147.367 82.1278 145.392 83.1165L78.7249 116.45C77.5682 117.028 76.2929 117.329 74.9999 117.329C73.7069 117.329 72.4316 117.028 71.2749 116.45L4.60823 83.1165C2.70216 82.0887 1.27107 80.3592 0.618096 78.2944C-0.0348805 76.2297 0.141547 73.9918 1.11001 72.0549C2.07847 70.118 3.76289 68.6341 5.80648 67.9177C7.85007 67.2012 10.0923 67.3084 12.0582 68.2165L74.9999 99.6665L137.95 68.2082C139.926 67.2213 142.213 67.0594 144.308 67.7578C146.404 68.4563 148.136 69.9581 149.125 71.9332M75.0666 0.666504C75.3777 0.666504 75.686 0.685948 75.9916 0.724837L76.9166 0.891504L77.6332 1.0915L77.7332 1.14151L77.8332 1.15817L78.0749 1.27484L78.4916 1.43317L78.6249 1.50817L78.7249 1.54984L145.392 34.8832C146.774 35.576 147.936 36.6398 148.749 37.9555C149.561 39.2712 149.991 40.7869 149.991 42.3332C149.991 43.8794 149.561 45.3952 148.749 46.7109C147.936 48.0266 146.774 49.0904 145.392 49.7832L78.7249 83.1165C77.5682 83.6945 76.2929 83.9954 74.9999 83.9954C73.7069 83.9954 72.4316 83.6945 71.2749 83.1165L4.60823 49.7832C3.22589 49.0904 2.06356 48.0266 1.25128 46.7109C0.438993 45.3952 0.00878906 43.8794 0.00878906 42.3332C0.00878906 40.7869 0.438993 39.2712 1.25128 37.9555C2.06356 36.6398 3.22589 35.576 4.60823 34.8832L71.2749 1.54984L71.3666 1.50817L71.5166 1.42484L72.1666 1.15817L72.2582 1.14151L72.3666 1.0915L73.0832 0.891504L73.9999 0.724837L74.4666 0.683169L75.0666 0.666504Z" fill="url(#paint0_linear_180_5)"/>
<defs>
<linearGradient id="paint0_linear_180_5" x1="92" y1="0.999997" x2="2.38585e-07" y2="80.5" gradientUnits="userSpaceOnUse">
<stop stop-color="white"/>
<stop offset="1" stop-color="#999999"/>
</linearGradient>
</defs>
</svg>
