<svg width="150" height="117" viewBox="0 0 150 117" fill="none" xmlns="http://www.w3.org/2000/svg">
<path d="M149.108 71.275C150.095 73.2511 150.257 75.538 149.558 77.6335C148.86 79.7289 147.358 81.4613 145.383 82.45L78.7161 115.783C77.5594 116.361 76.2841 116.662 74.9911 116.662C73.6981 116.662 72.4228 116.361 71.2661 115.783L4.59944 82.45C2.69337 81.4221 1.26228 79.6927 0.609306 77.6279C-0.0436696 75.5632 0.132758 73.3253 1.10122 71.3884C2.06968 69.4515 3.75411 67.9676 5.79769 67.2511C7.84128 66.5347 10.0835 66.6419 12.0494 67.55L74.9911 99L137.941 67.5417C139.917 66.5548 142.204 66.3928 144.3 67.0913C146.395 67.7898 148.127 69.2916 149.116 71.2667M75.0578 0C75.3689 0 75.6772 0.0194442 75.9828 0.0583331L76.9078 0.225L77.6244 0.425001L77.7244 0.475001L77.8244 0.491667L78.0661 0.608333L78.4828 0.766667L78.6161 0.841665L78.7161 0.883333L145.383 34.2167C146.765 34.9095 147.927 35.9733 148.74 37.289C149.552 38.6047 149.982 40.1204 149.982 41.6667C149.982 43.2129 149.552 44.7287 148.74 46.0444C147.927 47.3601 146.765 48.4238 145.383 49.1167L78.7161 82.45C77.5594 83.028 76.2841 83.3289 74.9911 83.3289C73.6981 83.3289 72.4228 83.028 71.2661 82.45L4.59944 49.1167C3.2171 48.4238 2.05477 47.3601 1.24249 46.0444C0.430203 44.7287 0 43.2129 0 41.6667C0 40.1204 0.430203 38.6047 1.24249 37.289C2.05477 35.9733 3.2171 34.9095 4.59944 34.2167L71.2661 0.883333L71.3578 0.841665L71.5078 0.758334L72.1578 0.491667L72.2494 0.475001L72.3578 0.425001L73.0744 0.225L73.9911 0.0583331L74.4578 0.0166655L75.0578 0Z" fill="url(#paint0_linear_181_6)"/>
<defs>
<linearGradient id="paint0_linear_181_6" x1="91.9912" y1="0.333493" x2="-0.00878882" y2="79.8335" gradientUnits="userSpaceOnUse">
<stop/>
<stop offset="1" stop-color="#999999"/>
</linearGradient>
</defs>
</svg>
